<?xml version="1.0" encoding="iso-8859-1"?>
<!-- Uploaded to: SVG Repo, www.svgrepo.com, Generator: SVG Repo Mixer Tools -->
<!DOCTYPE svg PUBLIC "-//W3C//DTD SVG 1.1//EN" "http://www.w3.org/Graphics/SVG/1.1/DTD/svg11.dtd">
<svg fill="#000000" version="1.1" id="Capa_1" xmlns="http://www.w3.org/2000/svg" xmlns:xlink="http://www.w3.org/1999/xlink" 
	 width="800px" height="800px" viewBox="0 0 357.448 357.447"
	 xml:space="preserve">
<g>
	<g>
		<g>
			<path d="M314.609,205.061c-21.713,0-39.385,17.672-39.385,39.374c0,21.726,17.672,39.397,39.385,39.397
				c21.72,0,39.386-17.672,39.386-39.397C353.995,222.732,336.329,205.061,314.609,205.061z"/>
		</g>
		<g>
			<path d="M356.661,205.823c-17.173-27.721-35.692-38.986-57.117-34.75c-14.399-17.285-41.865-51.146-56.878-72.544h9.128
				c1.453,0,2.618-1.168,2.618-2.618V76.246c0-0.823-0.385-1.604-1.039-2.09c-0.643-0.498-1.543-0.657-2.324-0.432l-15.384,4.515
				c-0.667,0.201-1.261,0.67-1.573,1.279c-0.349,0.619-0.402,1.363-0.187,2.048l2.42,7.428c-2.696-4.365-3.566-6.488-3.783-7.509
				c-0.72-3.591-3.464-7.875-12.43-7.875c-10.4,0-24.091,5.735-24.668,5.981c-0.984,0.405-1.608,1.354-1.608,2.417v6.986
				c0,1.438,1.164,2.618,2.617,2.618h19.33l10.13,10.052c24.031,38.776,30.997,69.091,20.656,90.103
				c-11.097,22.668-39.067,26.787-42.142,27.178c-0.528,0-1.183,0-1.682,0.138c-0.312,0.012-1.152,0.036-3.326,0.036
				c-20.314,0-35.482-6.077-45.039-18.051c-16.351-20.5-11.91-52.737-10.49-60.714h5.221c7.323-0.271,11.769-2.396,13.177-6.309
				c2.816-7.809-8.467-18.23-9.767-19.404c-0.489-0.426-1.105-0.672-1.75-0.672H32.006c-0.931,0-1.801,0.499-2.27,1.306
				L17.45,136.321c-0.135,0.146-0.324,0.345-0.441,0.669c-1.285,3.444-12.391,34.083-11.388,58.253H2.625
				c-1.45,0-2.625,1.165-2.625,2.618v19.659c0,1.453,1.174,2.618,2.625,2.618h9.896c2.414,1.1,10.004,4.216,17.45,4.216h0.369
				c-3.696,6.106-5.639,13.03-5.639,20.092c0,21.726,17.672,39.392,39.389,39.392c21.726,0,39.386-17.666,39.386-39.392
				c0-3.135-0.382-6.239-1.138-9.259l3.609,8.118c0.411,0.948,1.351,1.573,2.393,1.573c146.252,0,149.351-3.693,166.561-24.127
				l0.264-0.324c1.405-1.658,2.883-3.411,4.564-5.297c8.862-9.908,18.938-14.52,31.693-14.52c11.865,0,24.391,3.903,37.686,8.07
				l4.828,1.514c0.252,0.078,0.516,0.132,0.895,0.132c1.447,0,2.618-1.188,2.618-2.642C357.442,207,357.166,206.316,356.661,205.823
				z M249.164,79.75v13.535h-5.934l-3.494-10.779L249.164,79.75z M24.337,134.949l9.161-15.727h116.247
				c3.78,3.645,8.668,10.139,7.629,13.045c-0.601,1.625-3.651,2.669-8.374,2.844L24.337,134.949z"/>
		</g>
	</g>
</g>
</svg>